<svg width="350" height="150" viewBox="0 0 350 150" fill="none" xmlns="http://www.w3.org/2000/svg">
<path d="M254.25 64.9428L257.05 73.9943H251.4L254.1 64.9428H254.25ZM261.75 56.696H242.85V63.7863C244.05 63.9874 245.05 64.1886 245.95 64.2891L239.75 84.3531C238.4 84.504 237.1 84.7554 235.8 85.0068V92.0971H251.75V85.0068C250.65 84.8057 250.25 84.6046 249.2 84.4537L249.75 81.688H258.85L259.7 84.504C258.6 84.6046 257.6 84.8057 256.55 85.0068V92.0971H274.9V85.0068C273.6 84.7554 272.2 84.504 270.75 84.3531L261.75 56.696Z" fill="black"/>
<path d="M287.95 63.032L338.5 61.2217L344.15 66.5017L344.6 79.1737L338.95 84.3028L289.15 86.0628L283.15 81.3863L282.7 68.7143L287.95 63.032ZM304 70.1725C304.35 67.0548 302.9 65.6971 299.1 65.7977L291.2 66.0994L291 68.7143C291.7 68.8148 292.2 68.8651 292.65 68.9154L291.5 78.7714C291.1 78.8217 290.55 78.872 289.9 79.0228L289.7 81.688L298 81.3863C301.75 81.2354 303.25 80.3805 303.6 77.0114L303.65 76.76C303.85 74.7988 303.15 73.6925 302 73.3908C303.25 72.8377 303.9 71.8823 304.05 70.3737L304 70.1725ZM299.9 76.4583C299.75 77.9668 299.3 78.3691 297.6 78.4194L295.25 78.52L295.6 75.1005L298.05 75C299.4 74.9497 300 75.0503 299.9 76.1565V76.4583ZM295.9 72.2343L296.25 68.9154L299.05 68.8148C300.45 68.7645 300.5 69.1668 300.4 70.3234L300.35 70.6251C300.25 71.7314 299.55 72.0834 298.2 72.1337L295.9 72.2343ZM311.15 68.8651C307.55 69.016 305.7 70.5245 305.3 74.1451L305.15 75.704C304.75 79.7771 306.1 81.4365 310.15 81.2857H310.7C312.4 81.2354 314.25 80.7325 315.6 79.6263L315.8 77.1623L313 77.2628L312.8 77.6651C312.45 78.4194 311.8 78.6205 310.95 78.6708L310.1 78.7211C309 78.7714 308.3 78.3691 308.4 77.112L308.45 76.76L316.2 76.5085L316.5 73.7428C316.85 70.3737 315.4 68.7645 311.9 68.8651H311.15ZM313.35 74.0445L308.7 74.1954L308.8 73.24C308.9 72.0834 309.8 71.3794 311 71.3291H311.65C312.8 71.2788 313.6 71.6811 313.45 72.8377L313.35 74.0445ZM323.25 77.7657C322.2 77.816 322.15 77.5645 322.3 75.9554L322.8 71.3291L326.1 71.2285L326.35 68.6137L323.05 68.7143L323.35 65.3954C322.25 65.496 321.7 65.5463 320.25 65.7977L319.95 68.1108C319.9 68.6137 319.65 68.8148 319.15 68.8651L318.2 68.9154L317.95 71.5303L319.35 71.48L318.7 77.6651C318.45 79.7771 319.45 80.9337 321.25 80.8834H321.5C322.85 80.8331 324.6 80.3303 325.55 79.6765L325.65 77.6651C324.9 77.7154 324.3 77.7154 323.55 77.7657H323.25ZM327.35 72.1337C327.2 73.7428 327.85 74.7485 330.75 75.1508C333.65 75.6034 334.15 75.704 334.05 76.4583L334 76.6594C333.9 77.5143 333.2 77.9165 332.15 77.9668H331.5C330.9 77.9668 330.3 77.9668 329.65 77.5645L329.55 76.2571L326.9 76.3577L326.6 78.872C328.4 80.2297 330.05 80.4811 331.5 80.4308L332.35 80.3805C335.5 80.28 337.05 79.1234 337.35 76.4583L337.4 75.7543C337.55 74.1451 336.7 73.1897 334.05 72.7874C331.05 72.2845 330.45 72.4354 330.55 71.6308V71.48C330.65 70.776 331.45 70.3737 332.75 70.3234C333.3 70.3234 334 70.3234 334.6 70.4743L334.65 71.7817L337.55 71.6811L337.8 68.6137C336.35 68.1108 334.25 67.96 332.85 68.0103H332.45C329.3 68.1108 327.7 69.1165 327.45 71.4297L327.35 72.1337Z" fill="black"/>
<path d="M185.25 64.9428L188.05 73.9943H182.4L185.1 64.9428H185.25ZM192.75 56.696H173.85V63.7863C175.05 63.9874 176.05 64.1886 176.95 64.2891L170.75 84.3531C169.4 84.504 168.1 84.7554 166.8 85.0068V92.0971H182.75V85.0068C181.65 84.8057 181.25 84.6046 180.2 84.4537L180.75 81.688H189.85L190.7 84.504C189.6 84.6046 188.6 84.8057 187.55 85.0068V92.0971H205.9V85.0068C204.6 84.7554 203.2 84.504 201.75 84.3531L192.75 56.696Z" fill="black"/>
<path d="M135.55 92.0971V85.0068C136.9 84.7554 138 84.5543 138.9 84.4537V64.3394C137.65 64.1886 136.45 63.9874 135.35 63.7863V56.696H153.7V63.7863C152.25 64.1383 150.6 64.3394 148.75 64.4903V84.2023H156.8L157.9 79.4754H164.45V92.0468H135.55V92.0971Z" fill="black"/>
<path d="M219.05 63.7863L217 64.088L221.1 72.6366H221.25L225.6 64.1886C224.85 64.088 224.05 63.9371 223.2 63.7863V56.696H238.2V63.7863C237 64.0377 235.85 64.2388 234.7 64.44L225.55 80.0788V84.4537C226.75 84.5543 227.9 84.7554 229.05 85.0068V92.0971H212.3V85.0068C213.4 84.8057 214.5 84.6046 215.65 84.4537V80.4811L206.5 64.2891C205.55 64.1886 204.55 63.9874 203.55 63.7863V56.696H219.1V63.7863H219.05Z" fill="black"/>
<path fill-rule="evenodd" clip-rule="evenodd" d="M101.8 56.696V63.7863C103.2 64.0377 104.35 64.2388 105.4 64.3897V84.4537C104.2 84.6046 103.1 84.8057 102 85.0068V92.0971H119.25V85.0068C118 84.7554 116.65 84.504 115.3 84.3531V80.7828H121C129.75 80.7828 133.15 77.8663 133.25 70.4743V67.8091C133.25 59.864 129.85 56.7966 120.95 56.7463H101.8V56.696ZM123.95 69.6697C123.9 72.0834 122.8 73.0388 120.2 73.0388H115.25V64.792H120.2C122.9 64.792 123.95 65.7977 123.95 68.312V69.6697Z" fill="black"/>
<path fill-rule="evenodd" clip-rule="evenodd" d="M270.95 58.6571H271.7C272.1 58.6571 272.3 58.8583 272.3 59.2103V59.3611C272.3 59.7131 272.1 59.9143 271.75 59.9143H270.95V58.6571ZM269.8 58.0537V58.6069C269.95 58.6069 270.1 58.6571 270.25 58.6571V61.272L269.8 61.3223V61.8754H271.35V61.3223H270.95V60.5177H271.65C271.9 60.8194 272.05 61.1714 272.2 61.5737V61.8251H273.35V61.272C273.2 61.272 272.95 61.2217 272.85 61.2217C272.75 60.8697 272.55 60.568 272.4 60.3669C272.8 60.2663 273 59.9143 273 59.3611V59.16C273 58.456 272.55 58.0537 271.75 58.0537H269.8ZM271.45 56.8469C273.4 56.8469 274.55 57.9531 274.55 60.0149C274.55 62.0766 273.4 63.1829 271.45 63.1829C269.5 63.1829 268.35 62.0766 268.35 60.0149C268.35 57.9531 269.5 56.8469 271.45 56.8469ZM271.45 56.344C269.15 56.344 267.8 57.7017 267.8 60.0149C267.8 62.328 269.15 63.736 271.45 63.736C273.75 63.736 275.1 62.3783 275.1 60.0149C275.1 57.7017 273.75 56.344 271.45 56.344Z" fill="black"/>
<path d="M92.0499 73.2903L71.8999 114.625H52.7999L48.4999 112.211L44.1499 114.625H24.9999L4.8999 73.2903L20.5999 34.2183H43.1499L48.4999 39.6994L54.6999 34.2183H76.3999L92.0499 73.2903ZM65.8999 60.8697L58.0999 68.664L61.9499 79.576L69.4499 69.9714L65.8999 60.8697ZM35.0499 79.5257L38.8999 68.6137L31.0499 60.8697L27.4999 69.9211L35.0499 79.5257ZM39.0999 94.0583L41.0499 100.093H44.4499L48.4999 97.9303L52.5499 100.093H55.9499L57.8999 94.0583L53.5499 92.952H43.5499L39.0999 94.0583ZM49.3499 52.5223V58.6068H47.5999V52.5725L43.1499 48.7508L34.8499 51.0137L31.8999 58.6068L40.3499 60.568L37.7999 56.1931L39.2999 55.288L43.0999 61.7748L35.5999 83.1463L38.5999 92.3485L43.0499 91.192L47.5999 88.376V86.3143L39.4999 77.7154L40.0999 76.0057L48.4499 78.4697L56.7999 76.0057L57.3999 77.7154L49.2999 86.4148V88.4765L53.8499 91.2423L58.3499 92.3988L61.2999 83.1965L53.7999 61.8251L57.5999 55.3383L59.0999 56.2434L56.5499 60.6183L64.9999 58.6571L62.0499 51.064L53.7499 48.8011L49.3499 52.5223Z" fill="black"/>
<path fill-rule="evenodd" clip-rule="evenodd" d="M126.5 104.719L128.3 109.999H124.7L126.45 104.719H126.5ZM127.9 103.16H123.5V104.467C124.15 104.518 124.55 104.568 124.85 104.568L121.8 113.67C121.3 113.67 120.8 113.72 120.3 113.821V115.128H124.75V113.821C124.3 113.77 124.1 113.72 123.7 113.72L124.35 111.558H128.75L129.5 113.72C129.05 113.77 128.7 113.77 128.25 113.821V115.128H133.1V113.821C132.6 113.77 132.05 113.72 131.55 113.67L127.9 103.16Z" fill="black"/>
<path fill-rule="evenodd" clip-rule="evenodd" d="M137.1 103.16H134.2V104.417C134.6 104.467 134.95 104.518 135.35 104.518V113.77C135 113.77 134.6 113.821 134.15 113.871V115.128H138.35V113.871C137.9 113.821 137.5 113.77 137.15 113.77V103.16H137.1Z" fill="black"/>
<path fill-rule="evenodd" clip-rule="evenodd" d="M142.5 103.16H139.6V104.417C140 104.467 140.35 104.518 140.75 104.518V113.77C140.4 113.77 140 113.821 139.55 113.871V115.128H143.75V113.871C143.3 113.821 142.9 113.77 142.55 113.77V103.16H142.5Z" fill="black"/>
<path fill-rule="evenodd" clip-rule="evenodd" d="M156.3 111.809C156.3 113.318 155.8 113.921 154.7 113.921H154.45C153.55 113.921 152.95 113.921 152 113.77V108.239C153.05 107.585 153.65 107.434 154.6 107.434H154.9C155.95 107.434 156.3 108.138 156.3 109.697V111.809ZM152 103.16H149.1V104.417C149.5 104.467 149.85 104.518 150.25 104.518V115.027C152.2 115.178 153.45 115.229 155.05 115.229H155.3C157 115.229 158.1 114.323 158.1 112.111V108.842C158.1 106.931 157.1 105.976 155.65 105.976H155.35C153.95 105.976 153.3 106.278 152.05 106.982V103.16H152Z" fill="black"/>
<path fill-rule="evenodd" clip-rule="evenodd" d="M166.2 110.25H161.5V109.295C161.5 107.987 162.3 107.334 163.6 107.334H164.1C165.35 107.334 166.15 107.937 166.15 109.194V110.25H166.2ZM163.6 106.026C161.1 106.026 159.75 107.233 159.75 109.647V111.507C159.75 114.122 160.85 115.279 163.6 115.279H164.2C165.5 115.279 166.75 114.877 167.55 113.971V112.815H166.15L166.1 113.066C165.8 113.77 165.1 113.971 164.3 113.971H163.6C162.35 113.971 161.55 113.368 161.55 112.061V111.457H167.8V109.446C167.8 107.133 166.65 105.976 164.2 105.976H163.6V106.026Z" fill="black"/>
<path fill-rule="evenodd" clip-rule="evenodd" d="M173.05 113.821C172.15 113.821 171.95 113.469 171.95 112.111V107.585H174.55V106.227H171.95V103.613C171.4 103.613 171.05 103.663 170.35 103.763V105.825C170.35 106.077 170.25 106.177 169.95 106.177H169.05V107.535H170.15V112.915C170.15 114.575 170.8 115.279 172.1 115.279H172.3C173.15 115.279 174.05 115.078 174.8 114.726V113.72C174.2 113.77 173.8 113.77 173.2 113.77H173.05V113.821Z" fill="black"/>
<path fill-rule="evenodd" clip-rule="evenodd" d="M176.4 108.742C176.4 110.049 177 110.602 179.35 111.055C181.65 111.507 182.15 111.658 182.15 112.463V112.714C182.15 113.72 181.55 114.072 180.4 114.072H179.85C179.35 114.072 178.25 113.971 177.85 113.368L177.75 112.413H176.35V114.374C177.15 115.279 178.95 115.379 179.85 115.379H180.5C182.7 115.379 183.8 114.575 183.8 112.664V112.211C183.8 110.854 183.05 110.351 180.9 109.898C178.5 109.446 177.95 109.446 177.95 108.541V108.44C177.95 107.635 178.6 107.334 179.95 107.334C180.65 107.334 181.4 107.384 182 107.686L182.15 108.842H183.6V106.781C182.55 106.278 180.95 106.127 180.05 106.127H179.75C177.5 106.127 176.4 106.881 176.4 108.44V108.742Z" fill="black"/>
<path fill-rule="evenodd" clip-rule="evenodd" d="M192.95 113.971C191.9 113.971 191.6 113.67 191.6 112.664V112.362C191.6 111.407 191.95 111.105 193 111.005C193.8 110.904 195.1 110.753 195.75 110.703V112.765C194.9 113.519 194.15 114.022 193.2 114.022H192.95V113.971ZM197.6 109.144C197.6 107.183 196.75 106.026 194.75 106.026H194.1C193.15 106.026 191.5 106.227 190.4 106.529V108.742H191.75L191.85 107.686C192.5 107.485 193.4 107.384 194 107.384C195.3 107.384 195.85 107.786 195.85 109.295V109.747C194.6 109.898 193.6 109.949 192.35 110.099C190.9 110.301 189.85 110.602 189.85 112.563V112.915C189.85 114.977 190.6 115.329 192.25 115.329H192.55C193.95 115.329 194.8 114.776 195.85 113.971V115.178H198.85V113.921C198.3 113.871 197.95 113.821 197.65 113.821V109.144H197.6Z" fill="black"/>
<path fill-rule="evenodd" clip-rule="evenodd" d="M202.85 106.227H199.95V107.485C200.35 107.535 200.7 107.585 201.1 107.585V113.72C200.75 113.72 200.35 113.77 199.9 113.821V115.078H204.2V113.821C203.65 113.77 203.25 113.72 202.9 113.72V108.993C203.65 108.088 204.3 107.837 205.2 107.837C205.55 107.786 206 107.786 206.5 107.786V106.127H205.75C204.55 106.127 203.8 106.781 202.9 107.887V106.227H202.85Z" fill="black"/>
<path fill-rule="evenodd" clip-rule="evenodd" d="M214.05 110.25H209.35V109.295C209.35 107.987 210.15 107.334 211.45 107.334H211.95C213.2 107.334 214 107.937 214 109.194V110.25H214.05ZM211.5 106.026C209 106.026 207.65 107.233 207.65 109.647V111.507C207.65 114.122 208.75 115.279 211.5 115.279H212.1C213.4 115.279 214.65 114.877 215.45 113.971V112.815H214L213.95 113.066C213.65 113.77 212.95 113.971 212.15 113.971H211.45C210.2 113.971 209.4 113.368 209.4 112.061V111.457H215.65V109.446C215.65 107.133 214.5 105.976 212.05 105.976H211.5V106.026Z" fill="black"/>
<path fill-rule="evenodd" clip-rule="evenodd" d="M225.3 113.971C223.95 113.971 223.25 113.318 223.25 112.061V109.345C223.25 108.038 223.95 107.384 225.3 107.384H226.15C227.5 107.384 228.2 108.038 228.2 109.345V112.061C228.2 113.318 227.5 113.971 226.15 113.971H225.3ZM226.15 115.329C228.75 115.329 229.9 114.122 229.9 111.558V109.898C229.9 107.334 228.75 106.077 226.1 106.077H225.3C222.65 106.077 221.45 107.334 221.45 109.898V111.558C221.45 114.122 222.65 115.329 225.3 115.329H226.15Z" fill="black"/>
<path fill-rule="evenodd" clip-rule="evenodd" d="M240.55 113.77V108.44C240.55 106.73 239.85 106.077 238.4 106.077H238.2C236.8 106.077 235.6 106.931 234.45 107.786V106.278H231.55V107.535C231.95 107.585 232.3 107.635 232.7 107.635V113.77C232.35 113.77 231.95 113.821 231.5 113.871V115.128H235.7V113.871C235.25 113.821 234.85 113.77 234.5 113.77V108.792C235.5 108.088 236.4 107.535 237.4 107.535H237.6C238.65 107.535 238.85 107.837 238.85 109.345V115.128H241.95V113.871L240.55 113.77Z" fill="black"/>
<path fill-rule="evenodd" clip-rule="evenodd" d="M244.25 115.229C244.95 115.229 245.3 114.927 245.3 114.223C245.3 113.519 244.95 113.217 244.25 113.217C243.55 113.217 243.2 113.519 243.2 114.223C243.15 114.877 243.5 115.229 244.25 115.229ZM245.2 103.16H243.25V104.87L243.75 111.558H244.75L245.25 104.87V103.16H245.2Z" fill="black"/>
</svg>
